<svg width="26" height="26" viewBox="0 0 26 26" fill="none" xmlns="http://www.w3.org/2000/svg">
<path d="M10 21.5L12.6727 16.7714C12.8024 16.5419 12.9163 16.3404 13.0182 16.1622M13.0182 16.1622C13.3341 15.6097 13.535 15.2806 13.7358 15.0336C15.3978 12.9885 18.3618 12.5845 20.5106 14.1101C20.8516 14.3522 21.2309 14.7309 21.985 15.485M13.0182 16.1622L12.5 16C11.3045 15.7609 10.7067 15.6413 10.1581 15.653C8.68985 15.6842 7.30956 16.3593 6.38354 17.4991C6.03751 17.925 5.76489 18.4702 5.21965 19.5607L5.10982 19.7804L4.98875 19.9849M21.985 15.485C22 14.7605 22 13.939 22 13C22 9.25027 22 7.3754 21.0451 6.06107C20.7367 5.6366 20.3634 5.26331 19.9389 4.95491C18.6246 4 16.7497 4 13 4C9.25027 4 7.3754 4 6.06107 4.95491C5.6366 5.26331 5.26331 5.6366 4.95491 6.06107C4 7.3754 4 9.25027 4 13C4 16.7497 4 18.6246 4.95491 19.9389C4.96611 19.9543 4.97738 19.9697 4.98875 19.9849M21.985 15.485C21.9401 17.6536 21.7609 18.9537 21.0451 19.9389C20.7367 20.3634 20.3634 20.7367 19.9389 21.0451C18.6246 22 16.7497 22 13 22C9.25027 22 7.3754 22 6.06107 21.0451C5.652 20.7479 5.29047 20.3904 4.98875 19.9849M10 10C10 11.1046 10.8954 12 12 12C13.1046 12 14 11.1046 14 10C14 8.89543 13.1046 8 12 8C10.8954 8 10 8.89543 10 10Z" stroke="black" stroke-width="1.5" stroke-linecap="round"/>
</svg>
