<svg width="26" height="26" viewBox="0 0 26 26" fill="none" xmlns="http://www.w3.org/2000/svg">
<path d="M4.02486 8.10448L4.69218 8.44681L4.02486 8.10448ZM4.2728 7.67504L4.90293 8.08179L4.90293 8.08179L4.2728 7.67504ZM8.23677 21.2499L7.86177 21.8995L8.23677 21.2499ZM4.2728 18.3248L4.90293 17.9181L4.2728 18.3248ZM4.02486 17.8954L4.69218 17.5531L4.02486 17.8954ZM17.7631 21.2499L18.1381 21.8995L17.7631 21.2499ZM13.2478 23.2203L13.285 23.9694L13.2478 23.2203ZM12.752 23.2203L12.7148 23.9694L12.752 23.2203ZM21.975 17.8954L21.3076 17.5531L21.975 17.8954ZM21.727 18.3248L21.0969 17.9181L21.0969 17.9181L21.727 18.3248ZM21.727 7.67504L21.0969 8.08179L21.0969 8.08179L21.727 7.67504ZM21.975 8.10448L21.3076 8.44681L21.975 8.10448ZM13.2478 2.77959L13.285 2.03051L13.2478 2.77959ZM12.752 2.77959L12.7148 2.03051L12.752 2.77959ZM19.8359 19.8627L19.1168 20.0756L19.1226 20.0951L19.1294 20.1144L19.8359 19.8627ZM6.15685 19.8868L5.43636 19.6784L5.42666 19.712L5.42012 19.7463L6.15685 19.8868ZM6.13528 19.9999L5.7297 20.6308L6.13528 19.9999ZM16.9999 9.99993H16.2499C16.2499 11.7949 14.7948 13.2499 12.9999 13.2499V13.9999V14.7499C15.6233 14.7499 17.7499 12.6233 17.7499 9.99993H16.9999ZM12.9999 13.9999V13.2499C11.205 13.2499 9.74991 11.7949 9.74991 9.99993H8.99991H8.24991C8.24991 12.6233 10.3766 14.7499 12.9999 14.7499V13.9999ZM8.99991 9.99993H9.74991C9.74991 8.20501 11.205 6.74993 12.9999 6.74993V5.99993V5.24993C10.3766 5.24993 8.24991 7.37658 8.24991 9.99993H8.99991ZM12.9999 5.99993V6.74993C14.7948 6.74993 16.2499 8.20501 16.2499 9.99993H16.9999H17.7499C17.7499 7.37658 15.6233 5.24993 12.9999 5.24993V5.99993ZM3.47363 12.9999H4.22363C4.22363 11.7131 4.22432 10.7968 4.28956 10.0667C4.35352 9.35086 4.4761 8.86803 4.69218 8.44681L4.02486 8.10448L3.35755 7.76215C3.0224 8.41546 2.86936 9.10672 2.79551 9.93318C2.72294 10.7453 2.72363 11.7394 2.72363 12.9999H3.47363ZM8.23677 4.74993L7.86177 4.10042C6.77015 4.73066 5.90888 5.22712 5.24182 5.69604C4.56301 6.17323 4.04089 6.65139 3.64268 7.2683L4.2728 7.67504L4.90293 8.08179C5.15967 7.68405 5.51653 7.33648 6.10446 6.92318C6.70414 6.50162 7.49738 6.04285 8.61177 5.39945L8.23677 4.74993ZM4.02486 8.10448L4.69218 8.44681C4.75635 8.32173 4.82668 8.1999 4.90293 8.08179L4.2728 7.67504L3.64268 7.26829C3.53952 7.4281 3.44436 7.59292 3.35755 7.76215L4.02486 8.10448ZM3.47363 12.9999H2.72363C2.72363 14.2604 2.72294 15.2545 2.79551 16.0667C2.86936 16.8931 3.0224 17.5844 3.35755 18.2377L4.02486 17.8954L4.69218 17.5531C4.4761 17.1318 4.35352 16.649 4.28956 15.9332C4.22432 15.2031 4.22363 14.2867 4.22363 12.9999H3.47363ZM4.2728 18.3248L4.90293 17.9181C4.82668 17.8 4.75635 17.6781 4.69218 17.5531L4.02486 17.8954L3.35755 18.2377C3.44436 18.407 3.53952 18.5718 3.64268 18.7316L4.2728 18.3248ZM17.7631 21.2499L17.3881 20.6004C16.2737 21.2438 15.4797 21.7014 14.8148 22.01C14.1629 22.3125 13.6835 22.4477 13.2107 22.4712L13.2478 23.2203L13.285 23.9694C14.0184 23.9329 14.6936 23.7199 15.4462 23.3706C16.1859 23.0274 17.0464 22.5297 18.1381 21.8995L17.7631 21.2499ZM8.23677 21.2499L7.86177 21.8995C8.95339 22.5297 9.81397 23.0274 10.5536 23.3706C11.3063 23.7199 11.9814 23.9329 12.7148 23.9694L12.752 23.2203L12.7892 22.4712C12.3163 22.4477 11.8369 22.3125 11.185 22.01C10.5201 21.7014 9.72616 21.2438 8.61177 20.6004L8.23677 21.2499ZM13.2478 23.2203L13.2107 22.4712C13.0702 22.4782 12.9296 22.4782 12.7892 22.4712L12.752 23.2203L12.7148 23.9694C12.9048 23.9788 13.0951 23.9788 13.285 23.9694L13.2478 23.2203ZM22.5262 12.9999H21.7762C21.7762 14.2867 21.7755 15.2031 21.7103 15.9332C21.6463 16.649 21.5237 17.1318 21.3076 17.5531L21.975 17.8954L22.6423 18.2377C22.9774 17.5844 23.1305 16.8931 23.2043 16.0667C23.2769 15.2545 23.2762 14.2604 23.2762 12.9999H22.5262ZM21.975 17.8954L21.3076 17.5531C21.2435 17.6781 21.1731 17.8 21.0969 17.9181L21.727 18.3248L22.3571 18.7316C22.4603 18.5718 22.5555 18.407 22.6423 18.2377L21.975 17.8954ZM17.7631 4.74993L17.3881 5.39945C18.5024 6.04285 19.2957 6.50162 19.8954 6.92318C20.4833 7.33648 20.8402 7.68405 21.0969 8.08179L21.727 7.67504L22.3571 7.2683C21.9589 6.65139 21.4368 6.17323 20.758 5.69604C20.0909 5.22712 19.2297 4.73066 18.1381 4.10042L17.7631 4.74993ZM22.5262 12.9999H23.2762C23.2762 11.7394 23.2769 10.7453 23.2043 9.93318C23.1305 9.10672 22.9774 8.41546 22.6423 7.76215L21.975 8.10448L21.3076 8.44681C21.5237 8.86803 21.6463 9.35086 21.7103 10.0667C21.7755 10.7968 21.7762 11.7131 21.7762 12.9999H22.5262ZM21.727 7.67504L21.0969 8.08179C21.1731 8.1999 21.2435 8.32173 21.3076 8.44681L21.975 8.10448L22.6423 7.76215C22.5555 7.59292 22.4603 7.42809 22.3571 7.26829L21.727 7.67504ZM17.7631 4.74993L18.1381 4.10042C17.0464 3.47017 16.1859 2.97252 15.4462 2.62929C14.6936 2.28001 14.0184 2.06692 13.285 2.03051L13.2478 2.77959L13.2107 3.52867C13.6835 3.55214 14.1629 3.6874 14.8148 3.98992C15.4797 4.29848 16.2737 4.75606 17.3881 5.39945L17.7631 4.74993ZM8.23677 4.74993L8.61177 5.39945C9.72616 4.75606 10.5201 4.29848 11.185 3.98992C11.8369 3.6874 12.3163 3.55214 12.7892 3.52867L12.752 2.77959L12.7148 2.03051C11.9814 2.06692 11.3063 2.28001 10.5536 2.62929C9.81397 2.97252 8.95339 3.47017 7.86177 4.10042L8.23677 4.74993ZM13.2478 2.77959L13.285 2.03051C13.0951 2.02108 12.9048 2.02108 12.7148 2.03051L12.752 2.77959L12.7892 3.52867C12.9296 3.52169 13.0702 3.52169 13.2107 3.52867L13.2478 2.77959ZM9.99991 16.9999V17.7499H15.9999V16.9999V16.2499H9.99991V16.9999ZM15.9999 16.9999V17.7499C17.4727 17.7499 18.7186 18.7302 19.1168 20.0756L19.8359 19.8627L20.5551 19.6498C19.9735 17.6848 18.1552 16.2499 15.9999 16.2499V16.9999ZM17.7631 21.2499L18.1381 21.8995C18.9935 21.4055 19.7046 20.9952 20.2873 20.6197L19.881 19.9893L19.4747 19.3589C18.9296 19.7102 18.2547 20.1001 17.3881 20.6004L17.7631 21.2499ZM19.881 19.9893L20.2873 20.6197C21.2005 20.0312 21.8719 19.4834 22.3571 18.7316L21.727 18.3248L21.0969 17.9181C20.7836 18.4035 20.3232 18.8121 19.4747 19.3589L19.881 19.9893ZM19.8359 19.8627L19.1294 20.1144L19.1745 20.2409L19.881 19.9893L20.5875 19.7376L20.5425 19.6111L19.8359 19.8627ZM9.99991 16.9999V16.2499C7.83419 16.2499 6.00879 17.6987 5.43636 19.6784L6.15685 19.8868L6.87733 20.0951C7.26922 18.7398 8.51994 17.7499 9.99991 17.7499V16.9999ZM8.23677 21.2499L8.61177 20.6004C7.75368 20.105 7.08339 19.7178 6.54085 19.369L6.13528 19.9999L5.7297 20.6308C6.30901 21.0032 7.0145 21.4103 7.86177 21.8995L8.23677 21.2499ZM6.13528 19.9999L6.54085 19.369C5.68236 18.8171 5.21826 18.4066 4.90293 17.9181L4.2728 18.3248L3.64268 18.7316C4.13094 19.488 4.80768 20.038 5.7297 20.6308L6.13528 19.9999ZM6.15685 19.8868L5.42012 19.7463L5.39855 19.8594L6.13528 19.9999L6.872 20.1404L6.89357 20.0273L6.15685 19.8868Z" fill="black"/>
</svg>
