<svg width="26" height="26" viewBox="0 0 26 26" fill="none" xmlns="http://www.w3.org/2000/svg">
<path d="M23.75 13C23.75 12.5858 23.4142 12.25 23 12.25C22.5858 12.25 22.25 12.5858 22.25 13H23H23.75ZM19.001 5L18.5505 5.59962L18.5505 5.59962L19.001 5ZM21 6.99903L20.4004 7.44953L20.431 7.49029L20.4669 7.52653L21 6.99903ZM22.4069 1.99665C22.405 1.58244 22.0677 1.24816 21.6535 1.25001C21.2393 1.25186 20.905 1.58914 20.9069 2.00335L21.6569 2L22.4069 1.99665ZM21.6657 3.98571L22.4157 3.98237L22.4157 3.98237L21.6657 3.98571ZM17.9857 7.66571L17.9824 8.41571L17.9824 8.41571L17.9857 7.66571ZM16.0034 6.90686C15.5891 6.90501 15.2519 7.2393 15.25 7.65351C15.2482 8.06772 15.5825 8.405 15.9967 8.40685L16 7.65685L16.0034 6.90686ZM21.2572 6.90267L21.8503 7.36169L21.8503 7.36169L21.2572 6.90267ZM20.9027 7.25717L21.3617 7.85029L21.3617 7.85029L20.9027 7.25717ZM21.0912 7.09117L21.6215 7.6215L21.0912 7.09117ZM23 13H22.25C22.25 18.1086 18.1086 22.25 13 22.25V23V23.75C18.9371 23.75 23.75 18.9371 23.75 13H23ZM13 23V22.25C7.89137 22.25 3.75 18.1086 3.75 13H3H2.25C2.25 18.9371 7.06294 23.75 13 23.75V23ZM3 13H3.75C3.75 7.89137 7.89137 3.75 13 3.75V3V2.25C7.06294 2.25 2.25 7.06294 2.25 13H3ZM13 3V3.75C15.0836 3.75 17.0044 4.43804 18.5505 5.59962L19.001 5L19.4515 4.40038C17.6546 3.05032 15.4197 2.25 13 2.25V3ZM19.001 5L18.5505 5.59962C19.2508 6.12582 19.8742 6.74916 20.4004 7.44953L21 6.99903L21.5996 6.54852C20.9886 5.73519 20.2648 5.01145 19.4515 4.40038L19.001 5ZM21.6569 2L20.9069 2.00335L20.9157 3.98906L21.6657 3.98571L22.4157 3.98237L22.4069 1.99665L21.6569 2ZM17.9857 7.66571L17.9891 6.91572L16.0034 6.90686L16 7.65685L15.9967 8.40685L17.9824 8.41571L17.9857 7.66571ZM21.6657 3.98571L20.9157 3.98906C20.9193 4.79848 20.9206 5.34217 20.8757 5.75351C20.8324 6.14976 20.7542 6.32713 20.664 6.44365L21.2572 6.90267L21.8503 7.36169C22.1793 6.93661 22.3089 6.44728 22.3668 5.91635C22.4232 5.4005 22.4192 4.75651 22.4157 3.98237L21.6657 3.98571ZM17.9857 7.66571L17.9824 8.41571C18.7565 8.41916 19.4005 8.42317 19.9164 8.36684C20.4473 8.30886 20.9366 8.17926 21.3617 7.85029L20.9027 7.25717L20.4437 6.66404C20.3271 6.75421 20.1498 6.83243 19.7535 6.8757C19.3422 6.92062 18.7985 6.91933 17.9891 6.91572L17.9857 7.66571ZM21.2572 6.90267L20.664 6.44365C20.6321 6.4849 20.5976 6.52404 20.5608 6.56084L21.0912 7.09117L21.6215 7.6215C21.7031 7.5399 21.7795 7.45314 21.8503 7.36169L21.2572 6.90267ZM21.0912 7.09117L20.5608 6.56084C20.524 6.59764 20.4849 6.63211 20.4437 6.66404L20.9027 7.25717L21.3617 7.85029C21.4531 7.77952 21.5399 7.7031 21.6215 7.6215L21.0912 7.09117ZM21 6.99903L20.4669 7.52653L20.558 7.61867L21.0912 7.09117L21.6243 6.56367L21.5331 6.47152L21 6.99903Z" fill="black"/>
</svg>
