<svg width="26" height="26" viewBox="0 0 26 26" fill="none" xmlns="http://www.w3.org/2000/svg">
<path d="M20.2178 9.93844L20.1005 10.6792L20.1005 10.6792L20.2178 9.93844ZM16.0616 5.78217L15.3208 5.8995L15.3208 5.8995L16.0616 5.78217ZM6.06107 21.0451L6.50191 20.4383L6.06107 21.0451ZM4.95491 19.9389L5.56168 19.4981L4.95491 19.9389ZM21.0451 19.9389L20.4383 19.4981L21.0451 19.9389ZM19.9389 21.0451L19.4981 20.4383L19.9389 21.0451ZM19.9389 4.95491L20.3798 4.34815L19.9389 4.95491ZM21.0451 6.06107L21.6518 5.62023L21.0451 6.06107ZM6.06107 4.95491L6.50191 5.56168L6.06107 4.95491ZM4.95491 6.06107L5.56168 6.50191L4.95491 6.06107ZM16 4.02893L16.0257 3.27937L16 4.02893ZM21.9711 10L22.7206 9.97432L21.9711 10ZM12.75 10C12.75 9.58579 12.4142 9.25 12 9.25C11.5858 9.25 11.25 9.58579 11.25 10H12H12.75ZM16.5327 15.328C16.8243 15.0338 16.8222 14.5589 16.528 14.2673C16.2338 13.9757 15.7589 13.9778 15.4673 14.272L16 14.8L16.5327 15.328ZM14.6022 16.2104L15.1348 16.7383L15.1348 16.7383L14.6022 16.2104ZM9.39785 16.2104L9.93054 15.6824L9.93054 15.6824L9.39785 16.2104ZM8.53269 14.272C8.24111 13.9778 7.76624 13.9757 7.47204 14.2673C7.17784 14.5589 7.17572 15.0338 7.46731 15.328L8 14.8L8.53269 14.272ZM12.2507 17.9841L12.3455 18.7281L12.3455 18.7281L12.2507 17.9841ZM11.7493 17.9841L11.6545 18.7281L11.6545 18.7281L11.7493 17.9841ZM12 18L12 18.75L12 18ZM20.2178 9.93844L20.3352 9.19768C18.5166 8.90965 17.0904 7.48339 16.8023 5.66485L16.0616 5.78217L15.3208 5.8995C15.7105 8.35988 17.6401 10.2895 20.1005 10.6792L20.2178 9.93844ZM13 22V21.25C11.1084 21.25 9.74999 21.249 8.69804 21.135C7.66013 21.0225 7.00992 20.8074 6.50191 20.4383L6.06107 21.0451L5.62023 21.6518C6.42656 22.2377 7.37094 22.5 8.53648 22.6263C9.68798 22.751 11.1418 22.75 13 22.75V22ZM4 13H3.25C3.25 14.8582 3.24897 16.312 3.37373 17.4635C3.50001 18.6291 3.76232 19.5734 4.34815 20.3798L4.95491 19.9389L5.56168 19.4981C5.19259 18.9901 4.97745 18.3399 4.865 17.302C4.75103 16.25 4.75 14.8916 4.75 13H4ZM6.06107 21.0451L6.50191 20.4383C6.14111 20.1762 5.82382 19.8589 5.56168 19.4981L4.95491 19.9389L4.34815 20.3798C4.70281 20.8679 5.13209 21.2972 5.62023 21.6518L6.06107 21.0451ZM22 13H21.25C21.25 14.8916 21.249 16.25 21.135 17.302C21.0225 18.3399 20.8074 18.9901 20.4383 19.4981L21.0451 19.9389L21.6518 20.3798C22.2377 19.5734 22.5 18.6291 22.6263 17.4635C22.751 16.312 22.75 14.8582 22.75 13H22ZM13 22V22.75C14.8582 22.75 16.312 22.751 17.4635 22.6263C18.6291 22.5 19.5734 22.2377 20.3798 21.6518L19.9389 21.0451L19.4981 20.4383C18.9901 20.8074 18.3399 21.0225 17.302 21.135C16.25 21.249 14.8916 21.25 13 21.25V22ZM21.0451 19.9389L20.4383 19.4981C20.1762 19.8589 19.8589 20.1762 19.4981 20.4383L19.9389 21.0451L20.3798 21.6518C20.8679 21.2972 21.2972 20.8679 21.6518 20.3798L21.0451 19.9389ZM19.9389 4.95491L19.4981 5.56168C19.8589 5.82382 20.1762 6.14111 20.4383 6.50191L21.0451 6.06107L21.6518 5.62023C21.2972 5.13209 20.8679 4.70281 20.3798 4.34815L19.9389 4.95491ZM13 4V3.25C11.1418 3.25 9.68798 3.24897 8.53648 3.37373C7.37094 3.50001 6.42656 3.76232 5.62023 4.34815L6.06107 4.95491L6.50191 5.56168C7.00992 5.19259 7.66013 4.97745 8.69804 4.865C9.74999 4.75103 11.1084 4.75 13 4.75V4ZM4 13H4.75C4.75 11.1084 4.75103 9.74999 4.865 8.69804C4.97745 7.66013 5.19259 7.00992 5.56168 6.50191L4.95491 6.06107L4.34815 5.62023C3.76232 6.42656 3.50001 7.37094 3.37373 8.53648C3.24897 9.68798 3.25 11.1418 3.25 13H4ZM6.06107 4.95491L5.62023 4.34815C5.13209 4.70281 4.70281 5.13209 4.34815 5.62023L4.95491 6.06107L5.56168 6.50191C5.82382 6.14111 6.14111 5.82382 6.50191 5.56168L6.06107 4.95491ZM13 4V4.75C14.1731 4.75 15.1456 4.75009 15.9743 4.77849L16 4.02893L16.0257 3.27937C15.1658 3.24991 14.1648 3.25 13 3.25V4ZM16 4.02893L15.9743 4.77849C17.8292 4.84204 18.7925 5.04907 19.4981 5.56168L19.9389 4.95491L20.3798 4.34815C19.2761 3.5463 17.8991 3.34355 16.0257 3.27937L16 4.02893ZM16 4.02893L15.25 4.02893C15.25 4.91121 15.2484 5.44215 15.3208 5.8995L16.0616 5.78217L16.8023 5.66485C16.7529 5.35298 16.75 4.96617 16.75 4.02892L16 4.02893ZM22 13H22.75C22.75 11.8352 22.7501 10.8342 22.7206 9.97432L21.9711 10L21.2215 10.0257C21.2499 10.8544 21.25 11.8269 21.25 13H22ZM21.9711 10L22.7206 9.97432C22.6564 8.10087 22.4537 6.7239 21.6518 5.62023L21.0451 6.06107L20.4383 6.50191C20.9509 7.20746 21.158 8.17075 21.2215 10.0257L21.9711 10ZM21.9711 10L21.9711 9.25C21.0338 9.24999 20.647 9.24707 20.3352 9.19768L20.2178 9.93844L20.1005 10.6792C20.5579 10.7516 21.0888 10.75 21.9711 10.75L21.9711 10ZM12 10H11.25V17.2H12H12.75V10H12ZM16 14.8L15.4673 14.272L14.0695 15.6824L14.6022 16.2104L15.1348 16.7383L16.5327 15.328L16 14.8ZM9.39785 16.2104L9.93054 15.6824L8.53269 14.272L8 14.8L7.46731 15.328L8.86516 16.7383L9.39785 16.2104ZM14.6022 16.2104L14.0695 15.6824C13.4997 16.2573 13.1161 16.6427 12.7935 16.9018C12.4827 17.1514 12.302 17.2215 12.1558 17.2401L12.2507 17.9841L12.3455 18.7281C12.8787 18.6601 13.3163 18.4057 13.7328 18.0713C14.1373 17.7464 14.5899 17.2882 15.1348 16.7383L14.6022 16.2104ZM9.39785 16.2104L8.86516 16.7383C9.41012 17.2882 9.86265 17.7464 10.2672 18.0713C10.6837 18.4057 11.1213 18.6601 11.6545 18.7281L11.7493 17.9841L11.8442 17.2401C11.698 17.2215 11.5173 17.1514 11.2065 16.9018C10.8839 16.6427 10.5003 16.2573 9.93054 15.6824L9.39785 16.2104ZM12.2507 17.9841L12.1558 17.2401C12.1041 17.2467 12.052 17.25 12 17.25L12 18L12 18.75C12.1154 18.75 12.2308 18.7427 12.3455 18.7281L12.2507 17.9841ZM12 18L12 17.25C11.948 17.25 11.8959 17.2467 11.8442 17.2401L11.7493 17.9841L11.6545 18.7281C11.7692 18.7427 11.8846 18.75 12 18.75L12 18ZM12 17.2H11.25V18H12H12.75V17.2H12Z" fill="black"/>
</svg>
