<svg width="26" height="26" viewBox="0 0 26 26" fill="none" xmlns="http://www.w3.org/2000/svg">
<path d="M6.93188 6.38642L6.74952 7.11391L6.93188 6.38642ZM10.3064 4.43812L9.58523 4.2323L10.3064 4.43812ZM4.23837 11.0517L4.77722 10.53L4.23837 11.0517ZM4.23837 14.9483L3.69952 14.4266L3.69952 14.4266L4.23837 14.9483ZM6.93188 19.6136L7.11423 20.3411L6.93188 19.6136ZM10.3064 21.5619L9.58523 21.7677L9.58523 21.7677L10.3064 21.5619ZM15.6935 21.5619L16.4147 21.7677L15.6935 21.5619ZM19.068 19.6136L19.2504 18.8861L19.068 19.6136ZM21.7615 14.9483L21.2227 15.47L21.2227 15.47L21.7615 14.9483ZM21.7615 11.0517L21.2227 10.53L21.2227 10.53L21.7615 11.0517ZM19.068 6.38642L18.8857 5.65893L19.068 6.38642ZM15.6935 4.43812L16.4147 4.2323L15.6935 4.43812ZM6.93188 6.38642L6.74952 7.11391C8.60843 7.57987 10.5017 6.48678 11.0276 4.64394L10.3064 4.43812L9.58523 4.2323C9.28146 5.2967 8.18792 5.92806 7.11423 5.65893L6.93188 6.38642ZM4.23837 11.0517L4.77722 10.53C3.34195 9.04752 4.74798 6.6122 6.74952 7.11391L6.93188 6.38642L7.11423 5.65893C3.6489 4.7903 1.2146 9.00664 3.69952 11.5734L4.23837 11.0517ZM4.23837 14.9483L4.77722 15.47C6.1102 14.0931 6.1102 11.9069 4.77722 10.53L4.23837 11.0517L3.69952 11.5734C4.46944 12.3687 4.46944 13.6314 3.69952 14.4266L4.23837 14.9483ZM6.93188 19.6136L6.74952 18.8861C4.74798 19.3878 3.34195 16.9525 4.77722 15.47L4.23837 14.9483L3.69952 14.4266C1.2146 16.9934 3.6489 21.2097 7.11423 20.3411L6.93188 19.6136ZM10.3064 21.5619L11.0276 21.3561C10.5017 19.5133 8.60843 18.4202 6.74952 18.8861L6.93188 19.6136L7.11423 20.3411C8.18792 20.072 9.28146 20.7033 9.58523 21.7677L10.3064 21.5619ZM15.6935 21.5619L14.9722 21.3561C14.406 23.3403 11.5939 23.3403 11.0276 21.3561L10.3064 21.5619L9.58523 21.7677C10.5656 25.2031 15.4342 25.2031 16.4147 21.7677L15.6935 21.5619ZM19.068 19.6136L19.2504 18.8861C17.3915 18.4202 15.4982 19.5133 14.9722 21.3561L15.6935 21.5619L16.4147 21.7677C16.7184 20.7033 17.812 20.072 18.8857 20.3411L19.068 19.6136ZM21.7615 14.9483L21.2227 15.47C22.6579 16.9525 21.2519 19.3878 19.2504 18.8861L19.068 19.6136L18.8857 20.3411C22.351 21.2097 24.7853 16.9934 22.3004 14.4266L21.7615 14.9483ZM21.7615 11.0517L21.2227 10.53C19.8897 11.9069 19.8897 14.0931 21.2227 15.47L21.7615 14.9483L22.3004 14.4266C21.5305 13.6314 21.5305 12.3687 22.3004 11.5734L21.7615 11.0517ZM19.068 6.38642L19.2504 7.11391C21.2519 6.6122 22.6579 9.04752 21.2227 10.53L21.7615 11.0517L22.3004 11.5734C24.7853 9.00664 22.351 4.7903 18.8857 5.65893L19.068 6.38642ZM15.6935 4.43812L14.9722 4.64394C15.4982 6.48678 17.3915 7.57987 19.2504 7.11391L19.068 6.38642L18.8857 5.65893C17.812 5.92806 16.7184 5.2967 16.4147 4.2323L15.6935 4.43812ZM15.6935 4.43812L16.4147 4.2323C15.4342 0.796916 10.5656 0.796917 9.58523 4.2323L10.3064 4.43812L11.0276 4.64394C11.5939 2.6597 14.406 2.6597 14.9722 4.64394L15.6935 4.43812ZM9.99994 13H9.24994C9.24994 15.0711 10.9289 16.75 12.9999 16.75V16V15.25C11.7573 15.25 10.7499 14.2427 10.7499 13H9.99994ZM12.9999 16V16.75C15.071 16.75 16.7499 15.0711 16.7499 13H15.9999H15.2499C15.2499 14.2427 14.2426 15.25 12.9999 15.25V16ZM15.9999 13H16.7499C16.7499 10.9289 15.071 9.25001 12.9999 9.25001V10V10.75C14.2426 10.75 15.2499 11.7574 15.2499 13H15.9999ZM12.9999 10V9.25001C10.9289 9.25001 9.24994 10.9289 9.24994 13H9.99994H10.7499C10.7499 11.7574 11.7573 10.75 12.9999 10.75V10Z" fill="black"/>
</svg>
