<svg width="26" height="26" viewBox="0 0 26 26" fill="none" xmlns="http://www.w3.org/2000/svg">
<path d="M5 8C5 7.06812 5 6.60218 5.15224 6.23463C5.35523 5.74458 5.74458 5.35523 6.23463 5.15224C6.60218 5 7.06812 5 8 5C8.93188 5 9.39782 5 9.76537 5.15224C10.2554 5.35523 10.6448 5.74458 10.8478 6.23463C11 6.60218 11 7.06812 11 8C11 8.93188 11 9.39782 10.8478 9.76537C10.6448 10.2554 10.2554 10.6448 9.76537 10.8478C9.39782 11 8.93188 11 8 11C7.06812 11 6.60218 11 6.23463 10.8478C5.74458 10.6448 5.35523 10.2554 5.15224 9.76537C5 9.39782 5 8.93188 5 8Z" stroke="black" stroke-width="1.5"/>
<path d="M15 8C15 7.06812 15 6.60218 15.1522 6.23463C15.3552 5.74458 15.7446 5.35523 16.2346 5.15224C16.6022 5 17.0681 5 18 5C18.9319 5 19.3978 5 19.7654 5.15224C20.2554 5.35523 20.6448 5.74458 20.8478 6.23463C21 6.60218 21 7.06812 21 8C21 8.93188 21 9.39782 20.8478 9.76537C20.6448 10.2554 20.2554 10.6448 19.7654 10.8478C19.3978 11 18.9319 11 18 11C17.0681 11 16.6022 11 16.2346 10.8478C15.7446 10.6448 15.3552 10.2554 15.1522 9.76537C15 9.39782 15 8.93188 15 8Z" stroke="black" stroke-width="1.5"/>
<path d="M5 18C5 17.0681 5 16.6022 5.15224 16.2346C5.35523 15.7446 5.74458 15.3552 6.23463 15.1522C6.60218 15 7.06812 15 8 15C8.93188 15 9.39782 15 9.76537 15.1522C10.2554 15.3552 10.6448 15.7446 10.8478 16.2346C11 16.6022 11 17.0681 11 18C11 18.9319 11 19.3978 10.8478 19.7654C10.6448 20.2554 10.2554 20.6448 9.76537 20.8478C9.39782 21 8.93188 21 8 21C7.06812 21 6.60218 21 6.23463 20.8478C5.74458 20.6448 5.35523 20.2554 5.15224 19.7654C5 19.3978 5 18.9319 5 18Z" stroke="black" stroke-width="1.5"/>
<path d="M15 18C15 17.0681 15 16.6022 15.1522 16.2346C15.3552 15.7446 15.7446 15.3552 16.2346 15.1522C16.6022 15 17.0681 15 18 15C18.9319 15 19.3978 15 19.7654 15.1522C20.2554 15.3552 20.6448 15.7446 20.8478 16.2346C21 16.6022 21 17.0681 21 18C21 18.9319 21 19.3978 20.8478 19.7654C20.6448 20.2554 20.2554 20.6448 19.7654 20.8478C19.3978 21 18.9319 21 18 21C17.0681 21 16.6022 21 16.2346 20.8478C15.7446 20.6448 15.3552 20.2554 15.1522 19.7654C15 19.3978 15 18.9319 15 18Z" stroke="black" stroke-width="1.5"/>
</svg>
